<svg width="431" height="431" viewBox="0 0 431 431" fill="none" xmlns="http://www.w3.org/2000/svg">
<g clip-path="url(#clip0)">
<path d="M251.808 171.704C251.808 163.081 258.734 156.095 267.293 156.095C275.829 156.095 282.76 163.081 282.76 171.704C282.76 180.324 275.829 187.315 267.293 187.315C258.733 187.311 251.808 180.32 251.808 171.704ZM203.641 38.734H203.513V60.13H223.152V39.36C229.91 35.934 234.595 28.962 234.595 20.813C234.595 9.315 225.363 0 213.96 0C202.561 0 193.319 9.315 193.319 20.813C193.315 28.506 197.492 35.136 203.641 38.734ZM160.668 187.311C169.207 187.311 176.137 180.32 176.137 171.697C176.137 163.077 169.206 156.09 160.668 156.09C152.109 156.09 145.183 163.077 145.183 171.697C145.183 180.32 152.109 187.311 160.668 187.311ZM213.96 430.118C237.256 430.118 257.058 415.175 264.576 394.275H163.34C170.861 415.174 190.657 430.118 213.96 430.118ZM52.5699 366.702C52.5699 358.441 57.3769 351.366 64.2939 348.006V259.509C64.2939 242.054 77.7699 227.801 94.8069 226.671V183.846C94.8069 183.846 98.952 105.796 163.341 81.518C182.467 74.31 199.929 71.395 215.059 70.847C230.2 71.395 247.663 74.31 266.77 81.514C331.171 105.792 335.321 183.842 335.321 183.842V226.663C352.346 227.797 365.825 242.055 365.825 259.505V348.007C372.741 351.367 377.549 358.447 377.549 366.703C377.549 378.193 368.308 387.509 356.911 387.509C345.514 387.509 336.273 378.194 336.273 366.703C336.273 358.442 341.085 351.367 347.987 348.007V288.847C344.151 290.826 339.847 292.021 335.325 292.329V312.891C335.442 314.553 335.577 316.201 335.577 317.904C335.577 319.706 335.461 321.488 335.325 323.271V323.747H335.303C332.554 358.004 305.975 385.446 272.287 389.189L272.315 389.656H215.059H157.796L157.834 389.189C124.147 385.446 97.5749 358.003 94.8259 323.747H94.8069V323.271C94.6789 321.488 94.5549 319.706 94.5549 317.904C94.5549 316.205 94.6829 314.553 94.8069 312.891V292.332C90.2679 292.02 85.9649 290.834 82.1289 288.846V348.016C89.0429 351.376 93.8529 358.452 93.8529 366.703C93.8529 378.203 84.6139 387.514 73.2099 387.514C61.8169 387.512 52.5699 378.202 52.5699 366.702ZM249.502 257.856C249.502 252.331 245.059 247.84 239.57 247.84C234.072 247.84 229.629 252.325 229.629 257.856C229.629 263.391 234.072 267.881 239.57 267.881C245.059 267.881 249.502 263.391 249.502 257.856ZM273.957 257.856C273.957 252.331 269.514 247.84 264.025 247.84C258.536 247.84 254.085 252.325 254.085 257.856C254.085 263.391 258.537 267.881 264.025 267.881C269.513 267.881 273.957 263.391 273.957 257.856ZM298.422 257.856C298.422 252.331 293.979 247.84 288.49 247.84C282.992 247.84 278.55 252.325 278.55 257.856C278.55 263.391 282.992 267.881 288.49 267.881C293.979 267.881 298.422 263.391 298.422 257.856ZM131.425 174.595C131.425 201.186 152.065 202.925 152.065 202.925C159.248 205.214 174.427 204.078 181.295 202.925C187.616 201.849 210.81 199.828 214.503 199.499C214.644 199.513 214.867 199.537 215.054 199.545C215.25 199.536 215.47 199.513 215.6 199.499C219.297 199.823 242.483 201.849 248.811 202.925C255.691 204.078 270.859 205.214 278.046 202.925C278.046 202.925 298.679 201.191 298.679 174.595C298.679 174.595 298.679 145.109 278.046 127.187C258.033 109.805 227.954 106.034 216.15 105.81V105.791C215.982 105.791 215.777 105.805 215.599 105.805C215.427 105.805 215.212 105.791 215.053 105.791C214.885 105.791 214.675 105.805 214.502 105.805C214.327 105.805 214.117 105.791 213.954 105.791V105.81C202.162 106.034 172.074 109.805 152.064 127.187C131.425 145.109 131.425 174.595 131.425 174.595Z" fill="#585858"/>
</g>
<defs>
<clipPath id="clip0">
<rect width="430.117" height="430.118" fill="white"/>
</clipPath>
</defs>
</svg>
